<?xml version="1.0" encoding="UTF-8"?>
<svg xmlns="http://www.w3.org/2000/svg" width="71.0um" height="96.0um" viewBox="0 0 71.0 96.0">
  <g id="met4" fill="black" stroke="none">
    <rect x="47.000000" y="65.000000" width="12.000000" height="18.000000" />
    <rect x="44.000000" y="25.000000" width="3.000000" height="57.000000" />
    <rect x="59.000000" y="66.000000" width="3.000000" height="16.000000" />
    <rect x="42.000000" y="43.000000" width="2.000000" height="38.000000" />
    <rect x="62.000000" y="66.000000" width="1.000000" height="15.000000" />
    <rect x="40.000000" y="47.000000" width="2.000000" height="33.000000" />
    <rect x="63.000000" y="66.000000" width="2.000000" height="14.000000" />
    <rect x="39.000000" y="49.000000" width="1.000000" height="30.000000" />
    <rect x="65.000000" y="66.000000" width="1.000000" height="13.000000" />
    <rect x="38.000000" y="50.000000" width="1.000000" height="28.000000" />
    <rect x="66.000000" y="66.000000" width="1.000000" height="12.000000" />
    <rect x="37.000000" y="51.000000" width="1.000000" height="26.000000" />
    <rect x="67.000000" y="66.000000" width="1.000000" height="11.000000" />
    <rect x="36.000000" y="52.000000" width="1.000000" height="24.000000" />
    <rect x="68.000000" y="65.000000" width="1.000000" height="11.000000" />
    <rect x="35.000000" y="54.000000" width="1.000000" height="21.000000" />
    <rect x="69.000000" y="65.000000" width="1.000000" height="9.000000" />
    <rect x="13.000000" y="33.000000" width="2.000000" height="40.000000" />
    <rect x="18.000000" y="40.000000" width="2.000000" height="33.000000" />
    <rect x="34.000000" y="56.000000" width="1.000000" height="17.000000" />
    <rect x="12.000000" y="54.000000" width="1.000000" height="18.000000" />
    <rect x="15.000000" y="40.000000" width="3.000000" height="32.000000" />
    <rect x="33.000000" y="58.000000" width="1.000000" height="13.000000" />
    <rect x="70.000000" y="65.000000" width="1.000000" height="6.000000" />
    <rect x="11.000000" y="54.000000" width="1.000000" height="16.000000" />
    <rect x="10.000000" y="54.000000" width="1.000000" height="15.000000" />
    <rect x="8.000000" y="54.000000" width="2.000000" height="14.000000" />
    <rect x="6.000000" y="54.000000" width="2.000000" height="13.000000" />
    <rect x="5.000000" y="54.000000" width="1.000000" height="12.000000" />
    <rect x="32.000000" y="63.000000" width="1.000000" height="3.000000" />
    <rect x="4.000000" y="54.000000" width="1.000000" height="11.000000" />
    <rect x="20.000000" y="43.000000" width="1.000000" height="22.000000" />
    <rect x="47.000000" y="64.000000" width="10.000000" height="1.000000" />
    <rect x="21.000000" y="24.000000" width="1.000000" height="40.000000" />
    <rect x="47.000000" y="63.000000" width="9.000000" height="1.000000" />
    <rect x="3.000000" y="55.000000" width="1.000000" height="8.000000" />
    <rect x="47.000000" y="62.000000" width="8.000000" height="1.000000" />
    <rect x="2.000000" y="55.000000" width="1.000000" height="7.000000" />
    <rect x="22.000000" y="24.000000" width="1.000000" height="38.000000" />
    <rect x="47.000000" y="60.000000" width="7.000000" height="2.000000" />
    <rect x="23.000000" y="24.000000" width="1.000000" height="37.000000" />
    <rect x="1.000000" y="56.000000" width="1.000000" height="4.000000" />
    <rect x="47.000000" y="28.000000" width="6.000000" height="32.000000" />
    <rect x="55.000000" y="33.000000" width="2.000000" height="27.000000" />
    <rect x="24.000000" y="24.000000" width="1.000000" height="35.000000" />
    <rect x="53.000000" y="30.000000" width="2.000000" height="29.000000" />
    <rect x="0.000000" y="56.000000" width="1.000000" height="2.000000" />
    <rect x="25.000000" y="24.000000" width="1.000000" height="34.000000" />
    <rect x="26.000000" y="24.000000" width="1.000000" height="33.000000" />
    <rect x="27.000000" y="24.000000" width="1.000000" height="32.000000" />
    <rect x="28.000000" y="24.000000" width="2.000000" height="31.000000" />
    <rect x="30.000000" y="24.000000" width="2.000000" height="30.000000" />
    <rect x="12.000000" y="42.000000" width="1.000000" height="11.000000" />
    <rect x="32.000000" y="24.000000" width="1.000000" height="29.000000" />
    <rect x="33.000000" y="24.000000" width="2.000000" height="28.000000" />
    <rect x="3.000000" y="47.000000" width="5.000000" height="4.000000" />
    <rect x="11.000000" y="42.000000" width="1.000000" height="9.000000" />
    <rect x="35.000000" y="24.000000" width="1.000000" height="27.000000" />
    <rect x="2.000000" y="48.000000" width="1.000000" height="2.000000" />
    <rect x="8.000000" y="44.000000" width="3.000000" height="6.000000" />
    <rect x="36.000000" y="24.000000" width="1.000000" height="26.000000" />
    <rect x="37.000000" y="24.000000" width="1.000000" height="25.000000" />
    <rect x="57.000000" y="35.000000" width="1.000000" height="14.000000" />
    <rect x="38.000000" y="47.000000" width="2.000000" height="1.000000" />
    <rect x="6.000000" y="46.000000" width="2.000000" height="1.000000" />
    <rect x="38.000000" y="24.000000" width="1.000000" height="23.000000" />
    <rect x="41.000000" y="46.000000" width="1.000000" height="1.000000" />
    <rect x="7.000000" y="45.000000" width="1.000000" height="1.000000" />
    <rect x="39.000000" y="24.000000" width="1.000000" height="22.000000" />
    <rect x="9.000000" y="43.000000" width="2.000000" height="1.000000" />
    <rect x="40.000000" y="43.000000" width="2.000000" height="1.000000" />
    <rect x="40.000000" y="24.000000" width="1.000000" height="19.000000" />
    <rect x="43.000000" y="39.000000" width="1.000000" height="4.000000" />
    <rect x="58.000000" y="39.000000" width="1.000000" height="4.000000" />
    <rect x="41.000000" y="39.000000" width="2.000000" height="3.000000" />
    <rect x="20.000000" y="24.000000" width="1.000000" height="17.000000" />
    <rect x="15.000000" y="39.000000" width="2.000000" height="1.000000" />
    <rect x="19.000000" y="24.000000" width="1.000000" height="16.000000" />
    <rect x="15.000000" y="31.000000" width="1.000000" height="8.000000" />
    <rect x="18.000000" y="29.000000" width="1.000000" height="10.000000" />
    <rect x="41.000000" y="24.000000" width="1.000000" height="15.000000" />
    <rect x="42.000000" y="24.000000" width="2.000000" height="14.000000" />
    <rect x="16.000000" y="31.000000" width="2.000000" height="6.000000" />
    <rect x="14.000000" y="31.000000" width="1.000000" height="2.000000" />
    <rect x="55.000000" y="31.000000" width="1.000000" height="2.000000" />
    <rect x="15.000000" y="29.000000" width="3.000000" height="1.000000" />
    <rect x="53.000000" y="29.000000" width="1.000000" height="1.000000" />
    <rect x="11.000000" y="25.000000" width="6.000000" height="4.000000" />
    <rect x="9.000000" y="24.000000" width="2.000000" height="4.000000" />
    <rect x="47.000000" y="27.000000" width="5.000000" height="1.000000" />
    <rect x="8.000000" y="24.000000" width="1.000000" height="3.000000" />
    <rect x="17.000000" y="24.000000" width="2.000000" height="3.000000" />
    <rect x="47.000000" y="26.000000" width="3.000000" height="1.000000" />
    <rect x="47.000000" y="25.000000" width="1.000000" height="1.000000" />
    <rect x="11.000000" y="24.000000" width="3.000000" height="1.000000" />
    <rect x="15.000000" y="24.000000" width="2.000000" height="1.000000" />
    <rect x="44.000000" y="24.000000" width="1.000000" height="1.000000" />
  </g>
</svg>