<?xml version="1.0" encoding="UTF-8"?>
<svg xmlns="http://www.w3.org/2000/svg" width="24.0um" height="24.0um" viewBox="0 0 24.0 24.0">
  <g id="met2" fill="black" stroke="none">
    <rect x="2.000000" y="17.000000" width="20.500000" height="7.000000" />
    <rect x="1.000000" y="0.500000" width="1.000000" height="23.000000" />
    <rect x="22.500000" y="0.500000" width="0.500000" height="23.000000" />
    <rect x="0.500000" y="1.000000" width="0.500000" height="22.000000" />
    <rect x="23.000000" y="1.000000" width="0.500000" height="22.000000" />
    <rect x="23.500000" y="1.500000" width="0.500000" height="21.000000" />
    <rect x="0.000000" y="1.500000" width="0.500000" height="20.500000" />
    <rect x="2.000000" y="0.000000" width="5.000000" height="17.000000" />
    <rect x="10.000000" y="0.000000" width="4.000000" height="17.000000" />
    <rect x="17.500000" y="0.000000" width="5.000000" height="17.000000" />
    <rect x="7.000000" y="10.000000" width="3.000000" height="4.000000" />
    <rect x="14.000000" y="10.000000" width="3.500000" height="4.000000" />
    <rect x="7.000000" y="0.000000" width="3.000000" height="6.500000" />
    <rect x="14.000000" y="0.000000" width="3.500000" height="6.500000" />
    <rect x="1.500000" y="0.000000" width="0.500000" height="0.500000" />
  </g>
</svg>